/* XPM */
static char *d4ee79525618407ab4551a0cdde2b692487y2SXhVr2v6FtL[] = {
/* columns rows colors chars-per-pixel */
"64 64 2 1 ",
"  c black",
". c white",
/* pixels */
"................................................................",
"................................................................",
"................................................................",
"................................................................",
"............    ................................................",
"............    ................................................",
"............    ................................................",
"............    ................................................",
"........    ....................................................",
"........    ....................................................",
"........    ....................................................",
"........    ....................................................",
"........    ....................................................",
"........    ....................................................",
"................................................................",
"................................................................",
"................................................................",
"................................................................",
"................................................................",
"................................................................",
"................................................................",
"................................................................",
"................................................................",
"................................................................",
"................................................................",
"................................................................",
"................................................................",
"................................................................",
"....    ..........    ........    ..............................",
"....    ..........    ........    ..............................",
"....    ..........    ........    ..............................",
"....    ..........    ........    ..............................",
"................................................................",
"................................................................",
"................................................................",
"................................................................",
"......................    ..........    ..........    ..........",
"......................    ..........    ..........    ..........",
"........    ........        ......        ........      ........",
"........    ........        ......        ........      ........",
"......        ....          ....          ......          ......",
"......        ....          ....          ......          ......",
"......        ..              ..          ......                ",
"......        ..              ..          ......                ",
"......                                    ....      ........    ",
"......                                    ....      ........    ",
"....      ....      ....            ....            ........    ",
"....      ....      ....            ....            ........    ",
"      ........      ....            ....                        ",
"      ........      ....            ....                        ",
"      ....                    ........              ....        ",
"      ....                    ........              ....        ",
"                              ........      ....    ....        ",
"                              ........      ....    ....        ",
"....    ....  ....    ....        ....      ....          ....  ",
"....    ....  ....    ....        ....      ....          ....  ",
"....    ....  ....    ....                                ....  ",
"....    ....  ....    ....                                ....  ",
"    ....                                        ....            ",
"    ....                                        ....            ",
"    ....                                        ....            ",
"    ....                                        ....            ",
"            ....            ....    ....        ....    ....    ",
"            ....            ....    ....        ....    ....    "
};
