/* XPM */
static char *_8a0459027e54947c9a169ff5a7b3b8bl0bG0CCE7cCeyE8Z[] = {
/* columns rows colors chars-per-pixel */
"32 32 4 1 ",
"  c None",
". c black",
"X c #ED2323",
"o c #EDBF23",
/* pixels */
". ..      ..                .   ",
".   .    ..    oooXXXXX     ... ",
".    . ..XXXoooooooooooXXX     .",
" .   ..XXoooooooooooo  oX      .",
" . .. Xooooooooooooooooo       .",
" ..X oooooooooooooooooo     .  .",
" .XXooooooooooooooooooo..   .   ",
"..Xoooooooooooooooooooooooo .   ",
" X.oooooooooooXXXoooooooooo.    ",
" XX.ooo .ooooXoooooo     X .    ",
" XX.ooooooo.oooooo oX . X  .    ",
" X oXXXX.ooo ooo oo XXXX   .    ",
" XXo.XXXo o.oo .o oXoooo   .    ",
"XXoXX oo .ooooooooooX. o  ..    ",
" Xoo.oX.ooooo.ooooooooo o. .    ",
"Xooo.oooo.ooXo. o.X  .Xoo   .   ",
"XooooXooooooo.oooooooooo    .  .",
" oo oo.. oooooooooooooooo   .  .",
"o oo o ..oooooooooo...oX.oo.... ",
"o oo oooooooooXXX  ooooooo   .  ",
"o o oooooooooXooo.oooooooo.  .  ",
"X  oooooooooooooooooooooooo. . .",
" Xoooooooooooooooo  Xoo     .. .",
" X     oooo. o     X.. ..   ... ",
"  X     .o  ..o .XX.     ...... ",
" ooooooooXXX...oo         ....  ",
"o  X..o XoooooXXXooXXX......    ",
" o..Xo X      ooooooXXXXXXXXX   ",
"  oooXX            ooooooo      ",
"  ..ooooo...    ooooooo  Xooo   ",
"    oooooooooooo.ooooX.ooXooo   ",
"       ooooo        X   Xo      "
};
