/* XPM */
static char *_19b339afca6452ca75d80f88a4c52b8nyhrMMghJPjEzE2i[] = {
/* columns rows colors chars-per-pixel */
"32 32  2 1 ",
"  c white",
". c black",
/* pixels */
"                                ",
"                                ",
"                                ",
"                                ",
"                                ",
"              .                 ",
"              .                 ",
"             . .                ",
"            .. ..               ",
"           ... ...              ",
"          .... ....             ",
"         ..... .....            ",
"        ...... .......          ",
"        ...... ........         ",
"       ....... .........        ",
"     ........   ..........      ",
"    .........   .............   ",
"  ...........   ...........     ",
"    .......... ..........       ",
"      ........ .........        ",
"       ....... ........         ",
"        ...... .......          ",
"         ..... ......           ",
"          .... ......           ",
"            .. .....            ",
"             . ....             ",
"              ..                ",
"              ..                ",
"              ..                ",
"                                ",
"                                ",
"                                "
};
