/* XPM */
static char *result[] = {
/* columns rows colors chars-per-pixel */
"32 32 3 1 ",
"  c black",
". c white",
"X c white",
/* pixels */
"XXXXXXXXXXXXXXXXXXXXXXXXXXXXXXXX",
"XXXXXXXXXXXX.......XXXXXXXXXXXXX",
"XXXXXXXXX...       ...XXXXXXXXXX",
"XXXXXXX..             ..XXXXXXXX",
"XXXXXX.                 .XXXXXXX",
"XXXXX.                   .XXXXXX",
"XXXX.                     .XXXXX",
"XXX.                       .XXXX",
"XXX.    ..                 .XXXX",
"XX..    ..                  .XXX",
"XX.   ......                .XXX",
"XX.   ......                .XXX",
"X.      ..                   .XX",
"X.      ..                   .XX",
"X.                           .XX",
"X.                           .XX",
"X.                           .XX",
"X.                           .XX",
"X.                           .XX",
"X.                       ..  .XX",
"XX.                      .. .XXX",
"XX.                   ....  .XXX",
"XX.                   ....  .XXX",
"XXX.        ..     ...     .XXXX",
"XXX.        ..     ...     .XXXX",
"XXXX.         .....       .XXXXX",
"XXXXX.        .....      .XXXXXX",
"XXXXXX..                .XXXXXXX",
"XXXXXXX..             ..XXXXXXXX",
"XXXXXXXXX...       ...XXXXXXXXXX",
"XXXXXXXXXXXX.......XXXXXXXXXXXXX",
"XXXXXXXXXXXXXXXXXXXXXXXXXXXXXXXX"
};
