/* XPM */
static char *d4f545a9aabe4a56a1dffc2997ac08d2[] = {
/* columns rows colors chars-per-pixel */
"64 64 3 1 ",
"  c white",
". c #111111",
"X c #EFF5EF",
/* pixels */
"                                                                ",
"                                                                ",
"                                                                ",
"                                                                ",
"                                                                ",
"                                                                ",
"                                                                ",
"                                                                ",
"                                                                ",
"                                                                ",
"                                                                ",
"                                                                ",
"                                                                ",
"                                                                ",
"                                                                ",
"                                                                ",
"                                                                ",
"                                                                ",
"                          ............                          ",
"                          ............                          ",
"                    ......XXXXXXXXXXXX......                    ",
"                    ......XXXXXXXXXXXX......                    ",
"                  ..XXXXXXXXXXXXXXXXXXXXXXXX..                  ",
"                  ..XXXXXXXXXXXXXXXXXXXXXXXX..                  ",
"                ..XXXXXXXX............XXXXXXXX..                ",
"                ..XXXXXXXX............XXXXXXXX..                ",
"                ..XX......XXXXXXXXXXXX......XX..                ",
"                ..XX......XXXXXXXXXXXX......XX..                ",
"                ....XXXXXXXXXXXXXXXXXXXXXXXX....                ",
"                ....XXXXXXXXXXXXXXXXXXXXXXXX....                ",
"                ..XXXXXX................XXXXXX..                ",
"                ..XXXXXX................XXXXXX..                ",
"                ..XXXX..XXXXXXXXXXXXXXXX..XXXX..                ",
"                ..XXXX..XXXXXXXXXXXXXXXX..XXXX..                ",
"                ..XX....XXXXXXXXXXXXXXXXXX..XX..                ",
"                ..XX....XXXXXXXXXXXXXXXXXX..XX..                ",
"                ..XX..XXXXXXXXXXXXXXXXXXXX..XX..                ",
"                ..XX..XXXXXXXXXXXXXXXXXXXX..XX..                ",
"                ..XX..XXXXXX........XXXXXX..XX..                ",
"                ..XX..XXXXXX........XXXXXX..XX..                ",
"                ......XXXXXXXXXXXXXXXXXXXX..XX..                ",
"                ......XXXXXXXXXXXXXXXXXXXX..XX..                ",
"                ......XXXXXXXXXXXXXXXXXXXX..XX..                ",
"                ......XXXXXXXXXXXXXXXXXXXX..XX..                ",
"                ..XX..XXXXXXXXXXXXXXXXXXXX..XX..                ",
"                ..XX..XXXXXXXXXXXXXXXXXXXX..XX..                ",
"                ..XX..XXXXXXXXXXXX..XX..XX..XX..                ",
"                ..XX..XXXXXXXXXXXX..XX..XX..XX..                ",
"                ..XX..XXXXXXXXXXXX......XX..XX..                ",
"                ..XX..XXXXXXXXXXXX......XX..XX..                ",
"                ..XX..XXXXXXXXXXXXXXXXXXXX..XX..                ",
"                ..XX..XXXXXXXXXXXXXXXXXXXX..XX..                ",
"                ........XXXXXXXXXXXXXXXXXX..XX..                ",
"                ........XXXXXXXXXXXXXXXXXX..XX..                ",
"                ......XX..XXXXXXXXXXXXXXXX..XX..                ",
"                ......XX..XXXXXXXXXXXXXXXX..XX..                ",
"                ........XX..XXXXXXXXXXXXXX......                ",
"                ........XX..XXXXXXXXXXXXXX......                ",
"                ......XX..XX..XX..XX..XXXX......                ",
"                ......XX..XX..XX..XX..XXXX......                ",
"                ................................                ",
"                ................................                ",
"                ................................                ",
"                ................................                "
};
