/* XPM */
static char *c3ec41b34d614f1fa47cb311d8fdea92GM27g5YcuvpX46hM[] = {
/* columns rows colors chars-per-pixel */
"32 32 2 1 ",
"  c black",
". c white",
/* pixels */
"                                ",
" .............................. ",
" .... ......................... ",
" .... ......................... ",
" ... .......................... ",
" ... .......................... ",
" ... .......................... ",
" .............................. ",
" .............................. ",
" .............................. ",
" .............................. ",
" .............................. ",
" .............................. ",
" .............................. ",
" .............................. ",
" . ...... ..... ............... ",
" .............................. ",
" .............................. ",
" ..........  .....  .....  .... ",
" ...  ....    ...    ....   ... ",
" ..    ..     ..     ...     .. ",
" ..    .       .     ...        ",
" ..                       ....  ",
" .   ..   ..      ..      ....  ",
"   ....   ..      ..            ",
"   ..          ....       ..    ",
"               ....   ..  ..    ",
" .  .. ..  ..    ..   ..     .. ",
" .  .. ..  ..                .. ",
"  ..                    ..      ",
"  ..                    ..      ",
"      ..      ..  ..    ..  ..  "
};
