/* XPM */
static char *b818ed06d61d4f1fd66145a1d4642ff224zUXRV9X5BCFZSf[] = {
/* columns rows colors chars-per-pixel */
"48 64 4 1 ",
"  c white",
". c black",
"X c #111111",
"o c #EFF5EF",
/* pixels */
"               XXXXXXXXXXXXXXXXXX               ",
"               XXXXXXXXXXXXXXXXXX               ",
"               XXXXXXXXXXXXXXXXXX               ",
"      XXXXXXXXXooooooooooooooooooXXXXXXXXX      ",
"      XXXXXXXXXooooooooooooooooooXXXXXXXXX      ",
"      XXXXXXXXXooooooooooooooooooXXXXXXXXX      ",
"   XXXooooooooooooooooooooooooooooooooooooXXX   ",
"   XXXooooooooooooooooooooooooooooooooooooXXX   ",
"   XXXooooooooooooooooooooooooooooooooooooXXX   ",
"XXXooooooooooooXXXXXXXXXXXXXXXXXXooooooooooooXXX",
"XXXooooooooooooXXXXXXXXXXXXXXXXXXooooooooooooXXX",
"XXXooooooooooooXXXXXXXXXXXXXXXXXXooooooooooooXXX",
"XXXoooXXXXXXXXXooooooooooooooooooXXXXXXXXXoooXXX",
"XXXoooXXXXXXXXXooooooooooooooooooXXXXXXXXXoooXXX",
"XXXoooXXXXXXXXXooooooooooooooooooXXXXXXXXXoooXXX",
"XXXXXXooooooooooooooooooooooooooooooooooooXXXXXX",
"XXXXXXooooooooooooooooooooooooooooooooooooXXXXXX",
"XXXXXXooooooooooooooooooooooooooooooooooooXXXXXX",
"XXXoooooooooXXXXXXXXXXXXXXXXXXXXXXXXoooooooooXXX",
"XXXoooooooooXXXXXXXXXXXXXXXXXXXXXXXXoooooooooXXX",
"XXXoooooooooXXXXXXXXXXXXXXXXXXXXXXXXoooooooooXXX",
"XXXooooooXXXooooooooooooooooooooooooXXXooooooXXX",
"XXXooooooXXXooooooooooooooooooooooooXXXooooooXXX",
"XXXooooooXXXooooooooooooooooooooooooXXXooooooXXX",
"XXXoooXXXXXXooooooXXXXXXXXXXXXoooooooooXXXoooXXX",
"XXXoooXXXXXXooooooXXXXXXXXXXXXoooooooooXXXoooXXX",
"XXXoooXXXXXXooooooXXXXXXXXXXXXoooooooooXXXoooXXX",
"XXXoooXXXooooooXXXooooooooooooXXXooooooXXXoooXXX",
"XXXoooXXXooooooXXXooooooooooooXXXooooooXXXoooXXX",
"XXXoooXXXooooooXXXooooooooooooXXXooooooXXXoooXXX",
"XXXoooXXXooooooXXXoooXXXXXXoooXXXooooooXXXoooXXX",
"XXXoooXXXooooooXXXoooXXXXXXoooXXXooooooXXXoooXXX",
"XXXoooXXXooooooXXXoooXXXXXXoooXXXooooooXXXoooXXX",
"XXXXXXXXXooooooXXXoooXXXXXXoooXXXooooooXXXoooXXX",
"XXXXXXXXXooooooXXXoooXXXXXXoooXXXooooooXXXoooXXX",
"XXXXXXXXXooooooXXXoooXXXXXXoooXXXooooooXXXoooXXX",
"XXXXXXXXXoooXXXooooooooooooooooooXXXoooXXXoooXXX",
"XXXXXXXXXoooXXXooooooooooooooooooXXXoooXXXoooXXX",
"XXXXXXXXXoooXXXooooooooooooooooooXXXoooXXXoooXXX",
"XXXoooXXXoooXXXXXXooooooooooooXXXXXXoooXXXoooXXX",
"XXXoooXXXoooXXXXXXooooooooooooXXXXXXoooXXXoooXXX",
"XXXoooXXXoooXXXXXXooooooooooooXXXXXXoooXXXoooXXX",
"XXXoooXXXoooXXXoooooooooXXXooooooXXXoooXXXoooXXX",
"XXXoooXXXoooXXXoooooooooXXXooooooXXXoooXXXoooXXX",
"XXXoooXXXoooXXXoooooooooXXXooooooXXXoooXXXoooXXX",
"XXXoooXXXoooXXXXXXooooooXXXoooXXXXXXoooXXXoooXXX",
"XXXoooXXXoooXXXXXXooooooXXXoooXXXXXXoooXXXoooXXX",
"XXXoooXXXoooXXXXXXooooooXXXoooXXXXXXoooXXXoooXXX",
"XXXoooXXXoooXXXooooooooooooooooooXXXoooXXXoooXXX",
"XXXoooXXXoooXXXooooooooooooooooooXXXoooXXXoooXXX",
"XXXoooXXXoooXXXooooooooooooooooooXXXoooXXXoooXXX",
"XXXXXXXXXoooXXXXXXXXXXXXXXXXXXXXXXXXoooXXXoooXXX",
"XXXXXXXXXoooXXXXXXXXXXXXXXXXXXXXXXXXoooXXXoooXXX",
"XXXXXXXXXoooXXXXXXXXXXXXXXXXXXXXXXXXoooXXXoooXXX",
"XXXXXXXXXooooooooooooooooooooooooooooooXXXoooXXX",
"XXXXXXXXXooooooooooooooooooooooooooooooXXXoooXXX",
"XXXXXXXXXooooooooooooooooooooooooooooooXXXoooXXX",
"XXXXXXXXXXXXoooXXXoooo...ooo...ooooooooXXXXXXXXX",
"XXXXXXXXXXXXoooXXXoooo...ooo...ooooooooXXXXXXXXX",
"XXXXXXXXXXXXoooXXXoooo...ooo...ooooooooXXXXXXXXX",
"XXXXXXXXX...............................XXXXXXXX",
"XXXXXXXXX...............................XXXXXXXX",
"XXXXXXXXX...............................XXXXXXXX",
"XXXXXXXXXXXXXXXXXXXXXXXXXXXXXXXXXXX....XXXXXXXXX"
};
