/* XPM */
static char *_c4af4fabab34ab3a5d9f380946878d9JTIMvYBRx48DmVhd[] = {
/* columns rows colors chars-per-pixel */
"48 64 4 1 ",
"  c white",
". c black",
"X c #111111",
"o c #EFF5EF",
/* pixels */
"               XXXXXXXXXXXXXXXXXX               ",
"               XXXXXXXXXXXXXXXXXX               ",
"               XXXXXXXXXXXXXXXXXX               ",
"      XXXXXXXXXooooooooooooooooooXXXXXXXXX      ",
"      XXXXXXXXXooooooooooooooooooXXXXXXXXX      ",
"      XXXXXXXXXooooooooooooooooooXXXXXXXXX      ",
"   XXXooooooooooooooooooooooooooooooooooooXXX   ",
"   XXXooooooooooooooooooooooooooooooooooooXXX   ",
"   XXXooooooooooooooooooooooooooooooooooooXXX   ",
"XXXooooooooooooXXXXXXXXXXXXXXXXXXooooooooooooXXX",
"XXXooooooooooooXXXXXXXXXXXXXXXXXXooooooooooooXXX",
"XXXooooooooooooXXXXXXXXXXXXXXXXXXooooooooooooXXX",
"XXXoooXXXXXXXXXooooooooooooooooooXXXXXXXXXoooXXX",
"XXXoooXXXXXXXXXooooooooooooooooooXXXXXXXXXoooXXX",
"XXXoooXXXXXXXXXooooooooooooooooooXXXXXXXXXoooXXX",
"XXXXXXooooooooooooooooooooooooooooooooooooXXXXXX",
"XXXXXXooooooooooooooooooooooooooooooooooooXXXXXX",
"XXXXXXooooooooooooooooooooooooooooooooooooXXXXXX",
"XXXoooooooooXXXXXXXXXXXXXXXXXXXXXXXXoooooooooXXX",
"XXXoooooooooXXXXXXXXXXXXXXXXXXXXXXXXoooooooooXXX",
"XXXoooooooooXXXXXXXXXXXXXXXXXXXXXXXXoooooooooXXX",
"XXXooooooXXXooooooooooooooooooooooooXXXooooooXXX",
"XXXooooooXXXooooooooooooooooooooooooXXXooooooXXX",
"XXXooooooXXXooooooooooooooooooooooooXXXooooooXXX",
"XXXoooXXXXXXoooooooooooooooooooooooooooXXXoooXXX",
"XXXoooXXXXXXoooooooooooooooooooooooooooXXXoooXXX",
"XXXoooXXXXXXoooooooooooooooooooooooooooXXXoooXXX",
"XXXoooXXXooooooooooooooooooooooooooooooXXXoooXXX",
"XXXoooXXXooooooooooooooooooooooooooooooXXXoooXXX",
"XXXoooXXXooooooooooooooooooooooooooooooXXXoooXXX",
"XXXoooXXXoooooooooXXXXXXXXXXXXoooooooooXXXoooXXX",
"XXXoooXXXoooooooooXXXXXXXXXXXXoooooooooXXXoooXXX",
"XXXoooXXXoooooooooXXXXXXXXXXXXoooooooooXXXoooXXX",
"XXXXXXXXXooooooooooooooooooooooooooooooXXXoooXXX",
"XXXXXXXXXooooooooooooooooooooooooooooooXXXoooXXX",
"XXXXXXXXXooooooooooooooooooooooooooooooXXXoooXXX",
"XXXXXXXXXooooooooooooooooooooooooooooooXXXoooXXX",
"XXXXXXXXXooooooooooooooooooooooooooooooXXXoooXXX",
"XXXXXXXXXooooooooooooooooooooooooooooooXXXoooXXX",
"XXXoooXXXooooooooooooooooooooooooooooooXXXoooXXX",
"XXXoooXXXooooooooooooooooooooooooooooooXXXoooXXX",
"XXXoooXXXooooooooooooooooooooooooooooooXXXoooXXX",
"XXXoooXXXooooooooooooooooooXXXoooXXXoooXXXoooXXX",
"XXXoooXXXooooooooooooooooooXXXoooXXXoooXXXoooXXX",
"XXXoooXXXooooooooooooooooooXXXoooXXXoooXXXoooXXX",
"XXXoooXXX...oooooooooooooooXXXXXXXXXoooXXXoooXXX",
"XXXoooXXX...oooooooooooooooXXXXXXXXXoooXXXoooXXX",
"XXXoooXXX...oooooooooooooooXXXXXXXXXoooXXXoooXXX",
"XXXoooXXXooo...ooooooooooooooooooooooooXXXoooXXX",
"XXXoooXXXooo...ooooooooooooooooooooooooXXXoooXXX",
"XXXoooXXXooo...ooooooooooooooooooooooooXXXoooXXX",
"XXXXXXXXXXXXooo...oooooooooooooooooooooXXXoooXXX",
"XXXXXXXXXXXXooo...oooooooooooooooooooooXXXoooXXX",
"XXXXXXXXXXXXooo...oooooooooooooooooooooXXXoooXXX",
"XXXXXXXXXoooXXXoo...oooooooooooooooooooXXXoooXXX",
"XXXXXXXXXoooXXXoo...oooooooooooooooooooXXXoooXXX",
"XXXXXXXXXoooXXXoo...oooooooooooooooooooXXXoooXXX",
"XXXXXXXXXXXXoooXXXoo...ooooooooooooooooXXXXXXXXX",
"XXXXXXXXXXXXoooXXXoo...ooooooooooooooooXXXXXXXXX",
"XXXXXXXXXXXXoooXXXoo...ooooooooooooooooXXXXXXXXX",
"XXXXXXXXX..............................XXXXXXXXX",
"XXXXXXXXX..............................XXXXXXXXX",
"XXXXXXXXX..............................XXXXXXXXX",
"XXXXXXXXXXXXXXXXXXXXXXXXXXXXXXXXXXXXXXXXXXXXXXXX"
};
