/* XPM */
static char *e9f064449c3e4feaa3c65f83efe14854[] = {
/* columns rows colors chars-per-pixel */
"96 96 3 1 ",
"  c white",
". c #111111",
"X c #EFF5EF",
/* pixels */
"                                                                                                ",
"                                                                                                ",
"                                                                                                ",
"                                                                                                ",
"                                                                                                ",
"                                                                                                ",
"                                                                                                ",
"                                                                                                ",
"                                                                                                ",
"                                                                                                ",
"                                                                                                ",
"                                                                                                ",
"                                                                                                ",
"                                                                                                ",
"                                                                                                ",
"                                                                                                ",
"                                                                                                ",
"                                                                                                ",
"                                                                                                ",
"                                                                                                ",
"                                                                                                ",
"                                                                                                ",
"                                                                                                ",
"                                                                                                ",
"                                                                                                ",
"                                                                                                ",
"                                                                                                ",
"                                       ..................                                       ",
"                                       ..................                                       ",
"                                       ..................                                       ",
"                              .........XXXXXXXXXXXXXXXXXX.........                              ",
"                              .........XXXXXXXXXXXXXXXXXX.........                              ",
"                              .........XXXXXXXXXXXXXXXXXX.........                              ",
"                           ...XXXXXXXXXXXXXXXXXXXXXXXXXXXXXXXXXXXX...                           ",
"                           ...XXXXXXXXXXXXXXXXXXXXXXXXXXXXXXXXXXXX...                           ",
"                           ...XXXXXXXXXXXXXXXXXXXXXXXXXXXXXXXXXXXX...                           ",
"                        ...XXXXXXXXXXXX..................XXXXXXXXXXXX...                        ",
"                        ...XXXXXXXXXXXX..................XXXXXXXXXXXX...                        ",
"                        ...XXXXXXXXXXXX..................XXXXXXXXXXXX...                        ",
"                        ...XXX.........XXXXXXXXXXXXXXXXXX.........XXX...                        ",
"                        ...XXX.........XXXXXXXXXXXXXXXXXX.........XXX...                        ",
"                        ...XXX.........XXXXXXXXXXXXXXXXXX.........XXX...                        ",
"                        ......XXXXXXXXXXXXXXXXXXXXXXXXXXXXXXXXXXXX......                        ",
"                        ......XXXXXXXXXXXXXXXXXXXXXXXXXXXXXXXXXXXX......                        ",
"                        ......XXXXXXXXXXXXXXXXXXXXXXXXXXXXXXXXXXXX......                        ",
"                        ...XXXXXXXXX........................XXXXXXXXX...                        ",
"                        ...XXXXXXXXX........................XXXXXXXXX...                        ",
"                        ...XXXXXXXXX........................XXXXXXXXX...                        ",
"                        ...XXXXXX...XXXXXXXXXXXXXXXXXXXXXXXX...XXXXXX...                        ",
"                        ...XXXXXX...XXXXXXXXXXXXXXXXXXXXXXXX...XXXXXX...                        ",
"                        ...XXXXXX...XXXXXXXXXXXXXXXXXXXXXXXX...XXXXXX...                        ",
"                        ...XXX......XXXXXXXXXXXXXXXXXXXXXXXXXXX...XXX...                        ",
"                        ...XXX......XXXXXXXXXXXXXXXXXXXXXXXXXXX...XXX...                        ",
"                        ...XXX......XXXXXXXXXXXXXXXXXXXXXXXXXXX...XXX...                        ",
"                        ...XXX...XXXXXXXXXXXXXXXXXXXXXXXXXXXXXX...XXX...                        ",
"                        ...XXX...XXXXXXXXXXXXXXXXXXXXXXXXXXXXXX...XXX...                        ",
"                        ...XXX...XXXXXXXXXXXXXXXXXXXXXXXXXXXXXX...XXX...                        ",
"                        ...XXX...XXXXXXXXX............XXXXXXXXX...XXX...                        ",
"                        ...XXX...XXXXXXXXX............XXXXXXXXX...XXX...                        ",
"                        ...XXX...XXXXXXXXX............XXXXXXXXX...XXX...                        ",
"                        .........XXXXXXXXXXXXXXXXXXXXXXXXXXXXXX...XXX...                        ",
"                        .........XXXXXXXXXXXXXXXXXXXXXXXXXXXXXX...XXX...                        ",
"                        .........XXXXXXXXXXXXXXXXXXXXXXXXXXXXXX...XXX...                        ",
"                        .........XXXXXXXXXXXXXXXXXXXXXXXXXXXXXX...XXX...                        ",
"                        .........XXXXXXXXXXXXXXXXXXXXXXXXXXXXXX...XXX...                        ",
"                        .........XXXXXXXXXXXXXXXXXXXXXXXXXXXXXX...XXX...                        ",
"                        ...XXX...XXXXXXXXXXXXXXXXXXXXXXXXXXXXXX...XXX...                        ",
"                        ...XXX...XXXXXXXXXXXXXXXXXXXXXXXXXXXXXX...XXX...                        ",
"                        ...XXX...XXXXXXXXXXXXXXXXXXXXXXXXXXXXXX...XXX...                        ",
"                        ...XXX...XXXXXXXXXXXXXXXXXX...XXX...XXX...XXX...                        ",
"                        ...XXX...XXXXXXXXXXXXXXXXXX...XXX...XXX...XXX...                        ",
"                        ...XXX...XXXXXXXXXXXXXXXXXX...XXX...XXX...XXX...                        ",
"                        ...XXX...XXXXXXXXXXXXXXXXXX.........XXX...XXX...                        ",
"                        ...XXX...XXXXXXXXXXXXXXXXXX.........XXX...XXX...                        ",
"                        ...XXX...XXXXXXXXXXXXXXXXXX.........XXX...XXX...                        ",
"                        ...XXX...XXXXXXXXXXXXXXXXXXXXXXXXXXXXXX...XXX...                        ",
"                        ...XXX...XXXXXXXXXXXXXXXXXXXXXXXXXXXXXX...XXX...                        ",
"                        ...XXX...XXXXXXXXXXXXXXXXXXXXXXXXXXXXXX...XXX...                        ",
"                        ............XXXXXXXXXXXXXXXXXXXXXXXXXXX...XXX...                        ",
"                        ............XXXXXXXXXXXXXXXXXXXXXXXXXXX...XXX...                        ",
"                        ............XXXXXXXXXXXXXXXXXXXXXXXXXXX...XXX...                        ",
"                        .........XXX...XXXXXXXXXXXXXXXXXXXXXXXX...XXX...                        ",
"                        .........XXX...XXXXXXXXXXXXXXXXXXXXXXXX...XXX...                        ",
"                        .........XXX...XXXXXXXXXXXXXXXXXXXXXXXX...XXX...                        ",
"                        ............XXX...XXXXXXXXXXXXXXXXXXXXX.........                        ",
"                        ............XXX...XXXXXXXXXXXXXXXXXXXXX.........                        ",
"                        ............XXX...XXXXXXXXXXXXXXXXXXXXX.........                        ",
"                        .........XXX...XXX...XXX...XXX...XXXXXX.........                        ",
"                        .........XXX...XXX...XXX...XXX...XXXXXX.........                        ",
"                        .........XXX...XXX...XXX...XXX...XXXXXX.........                        ",
"                        ................................................                        ",
"                        ................................................                        ",
"                        ................................................                        ",
"                        ................................................                        ",
"                        ................................................                        ",
"                        ................................................                        "
};
