/* XPM */
static char *result[] = {
/* columns rows colors chars-per-pixel */
"35 54 6 1 ",
"  c black",
". c #3A0911",
"X c #811426",
"o c #A11B31",
"O c white",
"+ c white",
/* pixels */
"+++++++++..............++++++++++++",
"+++++++++..............++++++++++++",
"+++++++..XXoooooooooooo..++++++++++",
"+++++++..XXoooooooooooo..++++++++++",
"+++++..XXoooooo........oo..++++++++",
"+++++..XXoooooo........oo..++++++++",
"+++..XXoooooo..        ..oo..++++++",
"+++..XXoooooo..        ..oo..++++++",
"+++..XXoooo..            ..oo..++++",
"+++..XXoooo..            ..oo..++++",
"+..XXXXoooo..            ..oo..++++",
"+..XXXXoooo..            ..oo..++++",
".XXXXXXXXoo..  OO      OO..oo..++++",
".XXXXXXXXoo..  OO      OO..oo..++++",
".XXXX..XXoo..  OO      OO..oo..++++",
".XXXX..XXoo..  OO      OO..oo..++++",
"+......XXoo..            ..XX..++++",
"+......XXoo..            ..XX..++++",
"+++++..XXXXoo..          ..XX..++++",
"+++++..XXXXoo..          ..XX..++++",
"+++++++..XXXXXX..      ..XX..++++++",
"+++++++..XXXXXX..      ..XX..++++++",
"+++++++++....XXXX......XX..++++++++",
"+++++++++....XXXX......XX..++++++++",
"+++++++..XXXXXXooooooooooXX..++++++",
"+++++++..XXXXXXooooooooooXX..++++++",
"+++++..XXooooooooooooooooooXX..++++",
"+++++..XXooooooooooooooooooXX..++++",
"+++++..XXooooooooooooooooooXX..++++",
"+++++..XXooooooooooooooooooXX..++++",
"+++++..oooooooooooooooooooooo..++++",
"+++++..oooooooooooooooooooooo..++++",
"+++..XXoooooooooooooooooooooo..++++",
"+++..XXoooooooooooooooooooooo..++++",
"+++..XXooooooooooooXXooooooooXX..++",
"+++..XXooooooooooooXXooooooooXX..++",
"+..XXXXooooooooooooXXXXooooooXX..++",
"+..XXXXooooooooooooXXXXooooooXX..++",
"+..XXXXooooooooooXX..XXooooXXXXXX..",
"+..XXXXooooooooooXX..XXooooXXXXXX..",
"+..XXXXXXooXXooXXXX..XXXXooXXXXXX..",
"+..XXXXXXooXXooXXXX..XXXXooXXXXXX..",
"+..XX..XXXXooXXXX..  ..XXXXXXXXXX..",
"+..XX..XXXXooXXXX..  ..XXXXXXXXXX..",
"+++....XXXXXXXX..    ..XXXX..XX..++",
"+++....XXXXXXXX..    ..XXXX..XX..++",
"+++++++....XXXX..      ..XXXX..++++",
"+++++++....XXXX..      ..XXXX..++++",
"+++++++++++......++++  ......++++++",
"+++++++++++......++++  ......++++++",
"+++++++++++  ++++++++++++  ++++++++",
"+++++++++++  ++++++++++++  ++++++++",
"+++++++++  ++++++++++++++  ++++++++",
"+++++++++  ++++++++++++++  ++++++++"
};
