/* XPM */
static char *result[] = {
/* columns rows colors chars-per-pixel */
"33 55 6 1 ",
"  c black",
". c #3A0911",
"X c #811426",
"o c #A11B31",
"O c white",
"+ c white",
/* pixels */
"+++++++++++..............++++++++",
"+++++++++++..............++++++++",
"+++++++++..ooooooooooooXX..++++++",
"+++++++++..ooooooooooooXX..++++++",
"+++++++..oo........ooooooXX..++++",
"+++++++..oo........ooooooXX..++++",
"+++++..oo..        ..ooooooXX..++",
"+++++..oo..        ..ooooooXX..++",
"+++..oo..            ..ooooXX..++",
"+++..oo..            ..ooooXX..++",
"+++..oo..            ..ooooXXXX..",
"+++..oo..            ..ooooXXXX..",
"+++..oo..OO      OO  ..ooXXXXXX..",
"+++..oo..OO      OO  ..ooXXXXXX..",
"+++..oo..OO      OO  ..ooXX..XX..",
"+++..oo..OO      OO  ..ooXX..XX..",
"+++..XX..            ..ooXX..XX..",
"+++..XX..            ..ooXX..XX..",
"+++..XX..          ..ooXXXX....++",
"+++..XX..          ..ooXXXX....++",
"+++++..XX..      ..XXXXXX..++++++",
"+++++..XX..      ..XXXXXX..++++++",
"+++++++..XX......XXXX....++++++++",
"+++++++..XX......XXXX....++++++++",
"+++++..XXooooooooooXXXXXX..++++++",
"+++++..XXooooooooooXXXXXX..++++++",
"+++..XXooooooooooooooooooXX..++++",
"+++..XXooooooooooooooooooXX..++++",
"+++..XXooooooooooooooooooXX..++++",
"+++..XXooooooooooooooooooXX..++++",
"+++..oooooooooooooooooooooo..++++",
"+++..oooooooooooooooooooooo..++++",
"+++..ooooooooooooooooooooooXX..++",
"+++..ooooooooooooooooooooooXX..++",
"+..XXooooooooXXooooooooooooXX..++",
"+..XXooooooooXXooooooooooooXX..++",
"+..XXooooooooXXooooooooooooXX..++",
"+..XXooooooooXXooooooooooooXX..++",
"+..XXXXooooXX..XXooooooooooXX..++",
"+..XXXXooooXX..XXooooooooooXX..++",
"+..XXXXooXXXX..XXXXooXXooXXXXXX..",
"+..XXXXooXXXX..XXXXooXXooXXXXXX..",
"+..XXXXXXXX..  ..XXXXooXXXXXXXX..",
"+..XXXXXXXX..  ..XXXXooXXXXXXXX..",
"+..XX..XXXX..    ..XXXXXXXX..XX..",
"+..XX..XXXX..    ..XXXXXXXX..XX..",
"+++..XXXX..      ..XXXX..XX....++",
"+++..XXXX..      ..XXXX..XX....++",
"+++++......  ++++......++....++++",
"+++++......  ++++......++....++++",
"+++++++++  ++++++++    ++++++++++",
"+++++++++  ++++++++    ++++++++++",
"+++++++++  ++++++++  ++++++++++++",
"+++++++++  ++++++++  ++++++++++++",
"+++++++++  ++++++++  ++++++++++++"
};
