/* XPM */
static char *result[] = {
/* columns rows colors chars-per-pixel */
"35 54 6 1 ",
"  c black",
". c #3A0911",
"X c #811426",
"o c #A11B31",
"O c white",
"+ c white",
/* pixels */
"++++++++++++..............+++++++++",
"++++++++++++..............+++++++++",
"++++++++++..ooooooooooooXX..+++++++",
"++++++++++..ooooooooooooXX..+++++++",
"++++++++..oo........ooooooXX..+++++",
"++++++++..oo........ooooooXX..+++++",
"++++++..oo..        ..ooooooXX..+++",
"++++++..oo..        ..ooooooXX..+++",
"++++..oo..            ..ooooXX..+++",
"++++..oo..            ..ooooXX..+++",
"++++..oo..            ..ooooXXXX..+",
"++++..oo..            ..ooooXXXX..+",
"++++..oo..OO      OO  ..ooXXXXXXXX.",
"++++..oo..OO      OO  ..ooXXXXXXXX.",
"++++..oo..OO      OO  ..ooXX..XXXX.",
"++++..oo..OO      OO  ..ooXX..XXXX.",
"++++..XX..            ..ooXX......+",
"++++..XX..            ..ooXX......+",
"++++..XX..          ..ooXXXX..+++++",
"++++..XX..          ..ooXXXX..+++++",
"++++++..XX..      ..XXXXXX..+++++++",
"++++++..XX..      ..XXXXXX..+++++++",
"++++++++..XX......XXXX....+++++++++",
"++++++++..XX......XXXX....+++++++++",
"++++++..XXooooooooooXXXXXX..+++++++",
"++++++..XXooooooooooXXXXXX..+++++++",
"++++..XXooooooooooooooooooXX..+++++",
"++++..XXooooooooooooooooooXX..+++++",
"++++..XXooooooooooooooooooXX..+++++",
"++++..XXooooooooooooooooooXX..+++++",
"++++..oooooooooooooooooooooo..+++++",
"++++..oooooooooooooooooooooo..+++++",
"++++..ooooooooooooooooooooooXX..+++",
"++++..ooooooooooooooooooooooXX..+++",
"++..XXooooooooXXooooooooooooXX..+++",
"++..XXooooooooXXooooooooooooXX..+++",
"++..XXooooooXXXXooooooooooooXXXX..+",
"++..XXooooooXXXXooooooooooooXXXX..+",
"..XXXXXXooooXX..XXooooooooooXXXX..+",
"..XXXXXXooooXX..XXooooooooooXXXX..+",
"..XXXXXXooXXXX..XXXXooXXooXXXXXX..+",
"..XXXXXXooXXXX..XXXXooXXooXXXXXX..+",
"..XXXXXXXXXX..  ..XXXXooXXXX..XX..+",
"..XXXXXXXXXX..  ..XXXXooXXXX..XX..+",
"++..XX..XXXX..    ..XXXXXXXX....+++",
"++..XX..XXXX..    ..XXXXXXXX....+++",
"++++..XXXX..      ..XXXX....+++++++",
"++++..XXXX..      ..XXXX....+++++++",
"++++++......  ++++......+++++++++++",
"++++++......  ++++......+++++++++++",
"++++++++  ++++++++++++  +++++++++++",
"++++++++  ++++++++++++  +++++++++++",
"++++++++  ++++++++++++++  +++++++++",
"++++++++  ++++++++++++++  +++++++++"
};
