/* XPM */
static char *_25b25f76f4f426483d06d79a334f8c2[] = {
/* columns rows colors chars-per-pixel */
"64 64 6 1 ",
"  c white",
". c black",
"X c #3A0911",
"o c #811426",
"O c #A11B31",
"+ c white",
/* pixels */
"                                                                ",
"                                                                ",
"                                                                ",
"                                                                ",
"                          XXXXXXXXXXXXXX                        ",
"                          XXXXXXXXXXXXXX                        ",
"                        XXOOOOOOOOOOOOooXX                      ",
"                        XXOOOOOOOOOOOOooXX                      ",
"                      XXOOXXXXXXXXOOOOOOooXX                    ",
"                      XXOOXXXXXXXXOOOOOOooXX                    ",
"                    XXOOXX........XXOOOOOOooXX                  ",
"                    XXOOXX........XXOOOOOOooXX                  ",
"                  XXOOXX............XXOOOOooXX                  ",
"                  XXOOXX............XXOOOOooXX                  ",
"                  XXOOXX............XXOOOOooooXX                ",
"                  XXOOXX............XXOOOOooooXX                ",
"                  XXOOXX++......++..XXOOooooooXX                ",
"                  XXOOXX++......++..XXOOooooooXX                ",
"                  XXOOXX++......++..XXOOooXXooXX                ",
"                  XXOOXX++......++..XXOOooXXooXX                ",
"                  XXooXX............XXOOooXXooXX                ",
"                  XXooXX............XXOOooXXooXX                ",
"                  XXooXX..........XXOOooooXXXX                  ",
"                  XXooXX..........XXOOooooXXXX                  ",
"                    XXooXX......XXooooooXX                      ",
"                    XXooXX......XXooooooXX                      ",
"                      XXooXXXXXXooooXXXX                        ",
"                      XXooXXXXXXooooXXXX                        ",
"                    XXooOOOOOOOOOOooooooXX                      ",
"                    XXooOOOOOOOOOOooooooXX                      ",
"                  XXooOOOOOOOOOOOOOOOOOOooXX                    ",
"                  XXooOOOOOOOOOOOOOOOOOOooXX                    ",
"                  XXooOOOOOOOOOOOOOOOOOOooXX                    ",
"                  XXooOOOOOOOOOOOOOOOOOOooXX                    ",
"                  XXOOOOOOOOOOOOOOOOOOOOOOXX                    ",
"                  XXOOOOOOOOOOOOOOOOOOOOOOXX                    ",
"                  XXOOOOOOOOOOOOOOOOOOOOOOooXX                  ",
"                  XXOOOOOOOOOOOOOOOOOOOOOOooXX                  ",
"                XXooOOOOOOOOooOOOOOOOOOOOOooXX                  ",
"                XXooOOOOOOOOooOOOOOOOOOOOOooXX                  ",
"                XXooOOOOOOOOooOOOOOOOOOOOOooXX                  ",
"                XXooOOOOOOOOooOOOOOOOOOOOOooXX                  ",
"                XXooooOOOOooXXooOOOOOOOOOOooXX                  ",
"                XXooooOOOOooXXooOOOOOOOOOOooXX                  ",
"                XXooooOOooooXXooooOOooOOooooooXX                ",
"                XXooooOOooooXXooooOOooOOooooooXX                ",
"                XXooooooooXX..XXooooOOooooooooXX                ",
"                XXooooooooXX..XXooooOOooooooooXX                ",
"                XXooXXooooXX....XXooooooooXXooXX                ",
"                XXooXXooooXX....XXooooooooXXooXX                ",
"                  XXooooXX......XXooooXXooXXXX                  ",
"                  XXooooXX......XXooooXXooXXXX                  ",
"                    XXXXXX..    XXXXXX  XXXX                    ",
"                    XXXXXX..    XXXXXX  XXXX                    ",
"                        ..        ....                          ",
"                        ..        ....                          ",
"                        ..        ..                            ",
"                        ..        ..                            ",
"                        ..        ..                            ",
"                        ..        ..                            ",
"                                                                ",
"                                                                ",
"                                                                ",
"                                                                "
};
