/* XPM */
static char *result[] = {
/* columns rows colors chars-per-pixel */
"32 55 6 1 ",
"  c black",
". c #3A0911",
"X c #811426",
"o c #A11B31",
"O c white",
"+ c white",
/* pixels */
"++++++++..............++++++++++",
"++++++++..............++++++++++",
"+++++++...oooooooooooo..++++++++",
"+++++++...oooooooooooo..++++++++",
"++++++..ooooo      ooooo..++++++",
"++++++..o              o..++++++",
"++++..ooo              ooo..++++",
"++++..ooo              ooo..++++",
"++..oooo                oooo..++",
"++..oooo                oooo..++",
"++..XXXo   OO      OO   oXXX..++",
"++..XXXo   OO      OO   oXXX..++",
"++..XXXo   OO      OO   oXXX..++",
"++..XXoo   OO      OO   ooXX..++",
"++..XXoo   OO      OO   ooXX..++",
"++..XXoo                ooXX..++",
"++..XXXo                oXXX..++",
"++..XXXo                oXXX..++",
"++..XXXo                oXXX..++",
"++..XXXX                XXXX..++",
"++++..XXo              oXX..++++",
"++++..oooooo        ooooXX..++++",
"++++++..ooooooooooooooXX..++++++",
"++++++..oooooXXXooooooXX..++++++",
"++++..ooXXXXXXooooooooooXX..++++",
"++++..XXXXXXXXooooooooooXX..++++",
"++....XXooooooooooooooooXXXX..++",
"++..XXXXooooooooooooooooooXX..++",
"++..XXXXoooooooooooooooooXXX..++",
"++..XXXXoooooooooooooooooXXX..++",
"++..oooooooooooooooooooooooo..++",
"++..oooooooooooooooooooooooo..++",
"++..oXoooooooooooooooooooooo..++",
"++..XXoooooooooooooooooooooo..++",
"..XXXXooooooooo..oooooooooooXX..",
"..XXXXooooooooo..oooooooooooXX..",
"..XXXXooooooooo..oooooooooooXX..",
"..XXXXooooooooo..oooooooooooXX..",
"..XXXXooooooooo..oooooooooXXXX..",
"..XXXXoooooXX......XXoooooXXXX..",
"..XXXXXXXXXXX......XXXXXXXXXXX..",
"..XXXXXXXXX..........XXXXXXXXX..",
"..XXXXXXXXX..........XXXXXXXXX..",
"..XXXXXXX...        ..XXXXXXXX..",
"..XXXXXXX...        ..XXXXXXXX..",
"..XXXXXXX..          .XXXXXXXX..",
"++..XXXX...          ...XXXX..++",
"++..XXXX...          ...XXXX..++",
"++++....      +++++      ...++++",
"++++..++      +++++      +..++++",
"++++++++++  +++++++++  +++++++++",
"++++++++++  +++++++++  +++++++++",
"++++++++++  ++++++++++++++++++++",
"++++++++++  ++++++++++++++++++++",
"++++++++++  ++++++++++++++++++++"
};
