/* XPM */
static char *e8a79a16f1ff42adac81eba797f8e89dgOTCSn97PO1dkxKJ[] = {
/* columns rows colors chars-per-pixel */
"32 64 2 1 ",
"  c black",
". c white",
/* pixels */
"................................",
"................................",
"................................",
".........              .........",
".........              .........",
".......  ..............  .......",
".......  ..............  .......",
".....  ................    .....",
".....  ................    .....",
"...    ...             ..    ...",
"...    ...             ..    ...",
"...  ...                 ..  ...",
"...  ...    ..    ..     ..  ...",
"...  ...    ..    ..     ... ...",
"... ....    ..    ..     ... ...",
"... ....    ..    ..     ... ...",
"... ....    ..    ..     ... ...",
"... ....                 ... ...",
"... ....                 ... ...",
"... ....                 ... ...",
"... ....                 ... ...",
"... ......             ..... ...",
"... ........................ ...",
"...  ......................  ...",
"...  ......................  ...",
".....  ..................  .....",
".....  ..................  .....",
".......  ..............  .......",
".......  ..............  .......",
".......  ..............  .......",
".......  ..............  .......",
".....  ..................  .....",
".....  ..................  .....",
"...  ......................  ...",
"...  ......................  ...",
"...  ......................  ...",
"...  ......................  ...",
"...  ......................  ...",
"...  ......................  ...",
"...  ..........  ..........  ...",
"...  ..........  ..........  ...",
"... ...........  ........... ...",
"... ...........  ........... ...",
"... ...........  ........... ...",
"... ...........  ........... ...",
"... .......          ....... ...",
"... .......          ....... ...",
"... .....              ..... ...",
"... .....              ..... ...",
"... ...                  ... ...",
".... ..                  .. ....",
"...                          ...",
"...                          ...",
"...                         ....",
"....                        ....",
"....                       .....",
"....                       .....",
".........    ......  ...........",
".........    ......  ...........",
"...........  ......  ...........",
"...........  ......  ...........",
"...........  ......  ...........",
"...........  ......  ...........",
"................................"
};
