/* XPM */
static char *result[] = {
/* columns rows colors chars-per-pixel */
"34 53 5 1 ",
"  c black",
". c #3A0911",
"X c #811426",
"o c #A11B31",
"O c white",
/* pixels */
"OOOOOOOOOOOO..............OOOOOOOO",
"OOOOOOOOOO..ooooooooooooXX..OOOOOO",
"OOOOOOOOOO..ooooooooooooXX..OOOOOO",
"OOOOOOOO..ooooooooooooooooXX..OOOO",
"OOOOOOOO..ooooooooooooooooXX..OOOO",
"OOOOOO..ooooooooooooooooooooXX..OO",
"OOOOOO..ooooooooooooooooooooXX..OO",
"OOOO..ooooooXXooooooooooooooXX..OO",
"OOOO..ooooooXXoooXXoooooooooXX..OO",
"OOOO..ooooXXoooooXXoooooooooX...OO",
"OOOO..ooooXXoooooXXoooooooooX...OO",
"OOOO..ooooXXoooooXXoooooooXXX...OO",
"OOOO..ooooXXoooooXXoooooooXXX...OO",
"OOOO..ooooXXoooooXXoooooooXX....OO",
"OOOO..ooooXXoooooXXoooooooXX....OO",
"OOOO..XXooooXXoooXXoooooooXX....OO",
"OOOO..XXooooXXoXXoooooooooXX....OO",
"OOOO..XXoooooXXXXoooooooXXXX..OOOO",
"OOOO..XXoooooXXoooooooooXXXX..OOOO",
"OOOOOO..XXooooooooooXXXXXX..OOOOOO",
"OOOOOO..XXooooooooooXXXXXX..OOOOOO",
"OOOOOOOO..XXooooooXXXX....OOOOOOOO",
"OOOOOOOO..XXooooooXXXX....OOOOOOOO",
"OOOOOO..XXooooooooooXXXXXX..OOOOOO",
"OOOOOO..XXooooooooooXXXXXX..OOOOOO",
"OOOO..XXooooooooooooooooooXX..OOOO",
"OOOO..XXooooooooooooooooooXX..OOOO",
"OOOO..XXooooooooooooooooooXX..OOOO",
"OOOO..XXooooooooooooooooooXX..OOOO",
"OOOO..oooooooooooooooooooooo..OOOO",
"OOOO..oooooooooooooooooooooo..OOOO",
"OOOO..ooooooooooooooooooooooXX..OO",
"OOOO..ooooooooooooooooooooooXX..OO",
"OO..XXooooooooXXooooooooooooXX..OO",
"OO..XXooooooooXXooooooooooooXX..OO",
"OO..XXooooooXXXXooooooooooooXXXX..",
"OO..XXooooooXXXXooooooooooooXXXX..",
"..XXXXXXooooXXXXXXooooooooooXXXX..",
"..XXXXXXooooXXXXXXooooooooooXXXX..",
"..XXXXXXooXXXXXXXXXXooXXooXXXXXX..",
"..XXXXXXooXXXXXXXXXXooXXooXXXXXX..",
"..XXXXXXXXXXXXXXXXXXXXooXXXX..XX..",
"..XXXXXXXXXXXXXXXXXXXXooXXXX..XX..",
"OO..XX..XXXXXXXXXXXXXXXXXXXX....OO",
"OO..XX..XXXXXXXXXXXXXXXXXXXX....OO",
"OOOO..XXXX........XXXXXX....OOOOOO",
"OOOO..XXXX..........XXXX....OOOOOO",
"OOOOOO........OOOO......OOOOOOOOOO",
"OOOOOO........OOOO......OOOOOOOOOO",
"OOOOOOOO  OOOOOOOOOOOO  OOOOOOOOOO",
"OOOOOOOO  OOOOOOOOOOOO  OOOOOOOOOO",
"OOOOOOOO  OOOOOOOOOOOOOOOOOOOOOOOO",
"OOOOOOOO  OOOOOOOOOOOOOOOOOOOOOOOO"
};
