/* XPM */
static char *_3553bc67d4e4a99e91e14cd475c78a4AZ2hI1XAGXSEgK7c[] = {
/* columns rows colors chars-per-pixel */
"38 64 3 1 ",
"  c white",
". c black",
"X c white",
/* pixels */
"              XXXXXXXXXXXXXX          ",
"              XXXXXXXXXXXXXX          ",
"            XX..............XX        ",
"            XX..............XX        ",
"          XX..XXXXXXXXXXXXXX..XX      ",
"          XX..XXXXXXXXXXXXXX..XX      ",
"        XX..XXXXXXXXXXXXXXXX....XX    ",
"        XX..XXXXXXXXXXXXXXXX....XX    ",
"      XX....XXXXXXXX........XX....XX  ",
"      XX....XXXXXXXX........XX....XX  ",
"      XX..XXXXXXXX............XX....XX",
"      XX..XXXXXXXX............XX....XX",
"    XX....XXXXXXXX..............XX..XX",
"    XX....XXXXXXXX..............XX..XX",
"    XX....XXXXXXXX..XX......XX..XX..XX",
"    XX....XXXXXXXX..XX......XX..XX..XX",
"    XX....XXXXXXXX..XX......XX..XX..XX",
"    XX....XXXXXXXX..XX......XX..XX..XX",
"    XX......XXXXXX..............XX..XX",
"    XX......XXXXXX..............XX..XX",
"      XX....XXXXXX..............XX..XX",
"      XX....XXXXXX..............XX..XX",
"        XXXX..XXXXXXXX......XXXX..XX  ",
"        XXXX..XXXXXXXX......XXXX..XX  ",
"          XX..XXXXXXXXXXXXXXXX..XX    ",
"          XX..XXXXXXXXXXXXXXXX..XX    ",
"        XX..XXXXXXXXXXXXXXXX..XX      ",
"        XX..XXXXXXXXXXXXXXXX..XX      ",
"      XX..XXXXXXXXXXXXXXXXXX..XX      ",
"      XX..XXXXXXXXXXXXXXXXXX..XX      ",
"    XX..XXXXXXXXXXXXXXXXXXXXXX..XX    ",
"    XX..XXXXXXXXXXXXXXXXXXXXXX..XX    ",
"    XX..XXXXXXXXXXXXXXXXXXXXXXXX..XX  ",
"    XX..XXXXXXXXXXXXXXXXXXXXXXXX..XX  ",
"    XX..XXXXXXXXXXXXXXXXXXXXXXXX..XX  ",
"    XX..XXXXXXXXXXXXXXXXXXXXXXXX..XX  ",
"  XX..XXXXXXXXXXXXXXXXXXXXXXXXXX..XX  ",
"  XX..XXXXXXXXXXXXXXXXXXXXXXXXXX..XX  ",
"  XX..XXXXXXXXXXXXXX..XXXXXXXXXX..XX  ",
"  XX..XXXXXXXXXXXXXX..XXXXXXXXXX..XX  ",
"  XX..XXXXXXXXXXXXXX..XXXXXXXXXXXX..XX",
"  XX..XXXXXXXXXXXXXX..XXXXXXXXXXXX..XX",
"  XX..XXXXXXXXXXXXXX..XXXXXXXXXXXX..XX",
"  XX..XXXXXXXXXXXXXX..XXXXXXXXXXXX..XX",
"XX..XXXXXXXXXXXX..........XXXXXXXX..XX",
"XX..XXXXXXXXXXXX..........XXXXXXXX..XX",
"XX..XXXXXXXXXX..............XXXXXX..XX",
"XX..XXXXXXXXXX..............XXXXXX..XX",
"XX..XXXXXXXX..................XXXX..XX",
"XX..XXXXXXXX..................XXXX..XX",
"  XX..XXXX......................XX..XX",
"  XX..XXXX......................XX..XX",
"    XX..XXXX................XX  ..XX  ",
"    XX..XXXX................XX  ..XX  ",
"      XX........................XX    ",
"      XX........................XX    ",
"        XXXXXX....XX  XX..XXXXXX      ",
"        XXXXXX....XX  XX..XXXXXX      ",
"              XX..XX  XX..XX          ",
"              XX..XX  XX..XX          ",
"              XX..XX  XX..XX          ",
"              XX..XX  XX..XX          ",
"                XX      XX            ",
"                XX      XX            "
};
