/* XPM */
static char *_e7256ac037647918fd063b51982c402hzn92T99GbnbuCWn[] = {
/* columns rows colors chars-per-pixel */
"64 64 6 1 ",
"  c white",
". c black",
"X c #3A0911",
"o c #811426",
"O c #A11B31",
"+ c white",
/* pixels */
"                                                                ",
"                                                                ",
"                                                                ",
"                                                                ",
"                        XXXXXXXXXXXXXX                          ",
"                        XXXXXXXXXXXXXX                          ",
"                      XXooOOOOOOOOOOOOXX                        ",
"                      XXooOOOOOOOOOOOOXX                        ",
"                    XXooOOOOOOXXXXXXXXOOXX                      ",
"                    XXooOOOOOOXXXXXXXXOOXX                      ",
"                  XXooOOOOOOXX........XXOOXX                    ",
"                  XXooOOOOOOXX........XXOOXX                    ",
"                  XXooOOOOXX............XXOOXX                  ",
"                  XXooOOOOXX............XXOOXX                  ",
"                XXooooOOOOXX............XXOOXX                  ",
"                XXooooOOOOXX............XXOOXX                  ",
"                XXooooooOOXX..++......++XXOOXX                  ",
"                XXooooooOOXX..++......++XXOOXX                  ",
"                XXooXXooOOXX..++......++XXOOXX                  ",
"                XXooXXooOOXX..++......++XXOOXX                  ",
"                XXooXXooOOXX............XXooXX                  ",
"                XXooXXooOOXX............XXooXX                  ",
"                  XXXXooooOOXX..........XXooXX                  ",
"                  XXXXooooOOXX..........XXooXX                  ",
"                      XXooooooXX......XXooXX                    ",
"                      XXooooooXX......XXooXX                    ",
"                        XXXXooooXXXXXXooXX                      ",
"                        XXXXooooXXXXXXooXX                      ",
"                      XXooooooOOOOOOOOOOooXX                    ",
"                      XXooooooOOOOOOOOOOooXX                    ",
"                    XXooOOOOOOOOOOOOOOOOOOooXX                  ",
"                    XXooOOOOOOOOOOOOOOOOOOooXX                  ",
"                    XXooOOOOOOOOOOOOOOOOOOooXX                  ",
"                    XXooOOOOOOOOOOOOOOOOOOooXX                  ",
"                    XXOOOOOOOOOOOOOOOOOOOOOOXX                  ",
"                    XXOOOOOOOOOOOOOOOOOOOOOOXX                  ",
"                  XXooOOOOOOOOOOOOOOOOOOOOOOXX                  ",
"                  XXooOOOOOOOOOOOOOOOOOOOOOOXX                  ",
"                  XXooOOOOOOOOOOOOooOOOOOOOOooXX                ",
"                  XXooOOOOOOOOOOOOooOOOOOOOOooXX                ",
"                  XXooOOOOOOOOOOOOooOOOOOOOOooXX                ",
"                  XXooOOOOOOOOOOOOooOOOOOOOOooXX                ",
"                  XXooOOOOOOOOOOooXXooOOOOooooXX                ",
"                  XXooOOOOOOOOOOooXXooOOOOooooXX                ",
"                XXooooooOOooOOooooXXooooOOooooXX                ",
"                XXooooooOOooOOooooXXooooOOooooXX                ",
"                XXooooooooOOooooXX..XXooooooooXX                ",
"                XXooooooooOOooooXX..XXooooooooXX                ",
"                XXooXXooooooooXX....XXooooXXooXX                ",
"                XXooXXooooooooXX....XXooooXXooXX                ",
"                  XXXXooXXooooXX......XXooooXX                  ",
"                  XXXXooXXooooXX......XXooooXX                  ",
"                    XXXX  XXXXXX    ..XXXXXX                    ",
"                    XXXX  XXXXXX    ..XXXXXX                    ",
"                          ....        ..                        ",
"                          ....        ..                        ",
"                            ..        ..                        ",
"                            ..        ..                        ",
"                            ..        ..                        ",
"                            ..        ..                        ",
"                                                                ",
"                                                                ",
"                                                                ",
"                                                                "
};
