/* XPM */
static char *eba0524eeac14ec68e19c2e9e9df59cf[] = {
/* columns rows colors chars-per-pixel */
"64 64 6 1 ",
"  c white",
". c black",
"X c #3A0911",
"o c #811426",
"O c #A11B31",
"+ c white",
/* pixels */
"                                                                ",
"                                                                ",
"                                                                ",
"                                                                ",
"                                                                ",
"                                                                ",
"                                                                ",
"                                                                ",
"                                                                ",
"                                                                ",
"                      XXXXXXXXXXXXXX                            ",
"                      XXXXXXXXXXXXXX                            ",
"                    XXooOOOOOOOOOOOOXX                          ",
"                    XXooOOOOOOOOOOOOXX                          ",
"                  XXooOOOOOOXXXXXXXXOOXX                        ",
"                  XXooOOOOOOXXXXXXXXOOXX                        ",
"                XXooOOOOOOXX........XXOOXX                      ",
"                XXooOOOOOOXX........XXOOXX                      ",
"                XXooOOOOXX............XXOOXX                    ",
"                XXooOOOOXX............XXOOXX                    ",
"              XXooooOOOOXX............XXOOXX                    ",
"              XXooooOOOOXX............XXOOXX                    ",
"            XXooooooooOOXX..++......++XXOOXX                    ",
"            XXooooooooOOXX..++......++XXOOXX                    ",
"            XXooooXXooOOXX..++......++XXOOXX                    ",
"            XXooooXXooOOXX..++......++XXOOXX                    ",
"              XXXXXXooOOXX............XXooXX                    ",
"              XXXXXXooOOXX............XXooXX                    ",
"                  XXooooOOXX..........XXooXX                    ",
"                  XXooooOOXX..........XXooXX                    ",
"                    XXooooooXX......XXooXX                      ",
"                    XXooooooXX......XXooXX                      ",
"                      XXXXooooXXXXXXooXX                        ",
"                      XXXXooooXXXXXXooXX                        ",
"                    XXooooooOOOOOOOOOOooXX                      ",
"                    XXooooooOOOOOOOOOOooXX                      ",
"                  XXooOOOOOOOOOOOOOOOOOOooXX                    ",
"                  XXooOOOOOOOOOOOOOOOOOOooXX                    ",
"                  XXooOOOOOOOOOOOOOOOOOOooXX                    ",
"                  XXooOOOOOOOOOOOOOOOOOOooXX                    ",
"                  XXOOOOOOOOOOOOOOOOOOOOOOXX                    ",
"                  XXOOOOOOOOOOOOOOOOOOOOOOXX                    ",
"                XXooOOOOOOOOOOOOOOOOOOOOOOXX                    ",
"                XXooOOOOOOOOOOOOOOOOOOOOOOXX                    ",
"                XXooOOOOOOOOOOOOooOOOOOOOOooXX                  ",
"                XXooOOOOOOOOOOOOooOOOOOOOOooXX                  ",
"              XXooooOOOOOOOOOOOOooooOOOOOOooXX                  ",
"              XXooooOOOOOOOOOOOOooooOOOOOOooXX                  ",
"              XXooooOOOOOOOOOOooXXooOOOOooooooXX                ",
"              XXooooOOOOOOOOOOooXXooOOOOooooooXX                ",
"              XXooooooOOooOOooooXXooooOOooooooXX                ",
"              XXooooooOOooOOooooXXooooOOooooooXX                ",
"              XXooXXooooOOooooXX..XXooooooooooXX                ",
"              XXooXXooooOOooooXX..XXooooooooooXX                ",
"                XXXXooooooooXX....XXooooXXooXX                  ",
"                XXXXooooooooXX....XXooooXXooXX                  ",
"                    XXXXooooXX......XXooooXX                    ",
"                    XXXXooooXX......XXooooXX                    ",
"                        XXXXXX    ..XXXXXX                      ",
"                        XXXXXX    ..XXXXXX                      ",
"                        ..            ..                        ",
"                        ..            ..                        ",
"                      ..              ..                        ",
"                      ..              ..                        "
};
