/* XPM */
static char *_39f4070e08347e9b79b4366b43a2d61[] = {
/* columns rows colors chars-per-pixel */
"64 64 5 1 ",
"  c white",
". c black",
"X c #3A0911",
"o c #811426",
"O c #A11B31",
/* pixels */
"                                                                ",
"                                                                ",
"                                                                ",
"                                                                ",
"                                                                ",
"                                                                ",
"                            XXXXXXXXXXXXXX                      ",
"                            XXXXXXXXXXXXXX                      ",
"                          XXOOOOOOOOOOOOooXX                    ",
"                          XXOOOOOOOOOOOOooXX                    ",
"                        XXOOOOOOOOOOOOOOOOooXX                  ",
"                        XXOOOOOOOOOOOOOOOOooXX                  ",
"                      XXOOOOOOOOOOOOOOOOOOOOooXX                ",
"                      XXOOOOOOOOOOOOOOOOOOOOooXX                ",
"                    XXOOOOOOooOOOOOOOOOOOOOOooXX                ",
"                    XXOOOOOOooOOOooOOOOOOOOOooXX                ",
"                    XXOOOOooOOOOOooOOOOOOOOOoXXX                ",
"                    XXOOOOooOOOOOooOOOOOOOOOoXXX                ",
"                    XXOOOOooOOOOOooOOOOOOOoooXXX                ",
"                    XXOOOOooOOOOOooOOOOOOOoooXXX                ",
"                    XXOOOOooOOOOOooOOOOOOOooXXXX                ",
"                    XXOOOOooOOOOOooOOOOOOOooXXXX                ",
"                    XXooOOOOooOOOooOOOOOOOooXXXX                ",
"                    XXooOOOOooOooOOOOOOOOOooXXXX                ",
"                    XXooOOOOOooooOOOOOOOooooXX                  ",
"                    XXooOOOOOooOOOOOOOOOooooXX                  ",
"                      XXooOOOOOOOOOOooooooXX                    ",
"                      XXooOOOOOOOOOOooooooXX                    ",
"                        XXooOOOOOOooooXXXX                      ",
"                        XXooOOOOOOooooXXXX                      ",
"                      XXooOOOOOOOOOOooooooXX                    ",
"                      XXooOOOOOOOOOOooooooXX                    ",
"                    XXooOOOOOOOOOOOOOOOOOOooXX                  ",
"                    XXooOOOOOOOOOOOOOOOOOOooXX                  ",
"                    XXooOOOOOOOOOOOOOOOOOOooXX                  ",
"                    XXooOOOOOOOOOOOOOOOOOOooXX                  ",
"                    XXOOOOOOOOOOOOOOOOOOOOOOXX                  ",
"                    XXOOOOOOOOOOOOOOOOOOOOOOXX                  ",
"                    XXOOOOOOOOOOOOOOOOOOOOOOooXX                ",
"                    XXOOOOOOOOOOOOOOOOOOOOOOooXX                ",
"                  XXooOOOOOOOOooOOOOOOOOOOOOooXX                ",
"                  XXooOOOOOOOOooOOOOOOOOOOOOooXX                ",
"                  XXooOOOOOOooooOOOOOOOOOOOOooooXX              ",
"                  XXooOOOOOOooooOOOOOOOOOOOOooooXX              ",
"                XXooooooOOOOooooooOOOOOOOOOOooooXX              ",
"                XXooooooOOOOooooooOOOOOOOOOOooooXX              ",
"                XXooooooOOooooooooooOOooOOooooooXX              ",
"                XXooooooOOooooooooooOOooOOooooooXX              ",
"                XXooooooooooooooooooooOOooooXXooXX              ",
"                XXooooooooooooooooooooOOooooXXooXX              ",
"                  XXooXXooooooooooooooooooooXXXX                ",
"                  XXooXXooooooooooooooooooooXXXX                ",
"                    XXooooXXXXXXXXooooooXXXX                    ",
"                    XXooooXXXXXXXXXXooooXXXX                    ",
"                      XXXXXXXX    XXXXXX                        ",
"                      XXXXXXXX    XXXXXX                        ",
"                        ..            ..                        ",
"                        ..            ..                        ",
"                        ..            ..                        ",
"                                      ..                        "
"                                      ..                        ",
"                                      ..                        ",
"                                      ..                        ",
"                                      ..                        ",
};
