/* XPM */
static char *_a5ba0975bc94283ee5ddf886fba8e92xDJxcD1X9bPX40EU[] = {
/* columns rows colors chars-per-pixel */
"32 64 2 1 ",
"  c black",
". c white",
/* pixels */
"................................",
"................................",
"................................",
".........              .........",
"......... ............ .........",
".......  ..............  .......",
"....... ................ .......",
".....  .................   .....",
"..... .................... .....",
"...   .....................  ...",
"...  ......................  ...",
"...  ......................  ...",
"...  ......................  ...",
"...  ......................  ...",
"...  ......................  ...",
"...  ......................  ...",
"...  ......................  ...",
"...  ......................  ...",
"...  ......................  ...",
"...  ......................  ...",
"...  ......................  ...",
"...  ......................  ...",
"...  ......................  ...",
"...  ......................  ...",
"...  ......................  ...",
".....  ..................  .....",
".....  ..................  .....",
".......  ..............  .......",
".......  ..............  .......",
".......  ..............  .......",
".......  ..............  .......",
".....  ..................  .....",
".....  ..................  .....",
"...  .......  ...     .....  ...",
"...  ...... . ....... .....  ...",
"...  ..... .. ....... .....  ...",
"...  .... ... ....... .....  ...",
"...  ....       .     .....  ...",
"...  ........ ... .........  ...",
"...  ........ ...     .....  ...",
"...  ......................  ...",
"...  ......................  ...",
"...  ......................  ...",
"...  ......................  ...",
"...  ......................  ...",
"...  ...                ...  ...",
"...  .... .    ..    . ....  ...",
"...  .... .    ..    . ....  ...",
"...  ..... .  ....  . .....  ...",
"...  ......................  ...",
"...  ....... ..... ........  ...",
"...  ........     .........  ...",
"...  ......................  ...",
"...  ......................  ...",
"...  ......................  ...",
"...                          ...",
"...                          ...",
"...........  ......  ...........",
"...........  ......  ...........",
"...........  ......  ...........",
"...........  ......  ...........",
"...........  ......  ...........",
"...........  ......  ...........",
"................................"
};
