/* XPM */
static char *_3553bc67d4e4a99e91e14cd475c78a4AZ2hI1XAGXSEgK7c[] = {
/* columns rows colors chars-per-pixel */
"32 64 3 1 ",
"  c white",
". c black",
"X c white",
/* pixels */
"           XXXXXXXXXXXXXX       ",
"           XXXXXXXXXXXXXX       ",
"         XX..............XX     ",
"         XX..............XX     ",
"       XX..XXXXXXXXXXXXXX..XX   ",
"       XX..XXXXXXXXXXXXXX..XX   ",
"     XX..XXXXXXXXXXXXXXXX....XX ",
"     XX..XXXXXXXXXXXXXXXX....XX ",
"   XX....XXXXXXXX........XX....X",
"   XX....XXXXXXXX........XX....X",
"   XX..XXXXXXXX............XX..X",
"   XX..XXXXXXXX............XX..X",
" XX....XXXXXXXX..............X.X",
" XX....XXXXXXXX..............X.X",
" XX....XXXXXXXX..XX......XX..X.X",
" XX....XXXXXXXX..XX......XX..X.X",
" XX....XXXXXXXX..XX......XX..X.X",
" XX....XXXXXXXX..XX......XX..X.X",
" XX......XXXXXX..............X.X",
" XX......XXXXXX..............X.X",
"   XX....XXXXXX..............X.X",
"   XX....XXXXXX..............X.X",
"     XXXX..XXXXXXXX......XXXX..X",
"     XXXX..XXXXXXXX......XXXX..X",
"       XX..XXXXXXXXXXXXXXXX..XX ",
"       XX..XXXXXXXXXXXXXXXX..XX ",
"     XX..XXXXXXXXXXXXXXXX..XX   ",
"     XX..XXXXXXXXXXXXXXXX..XX   ",
"   XX..XXXXXXXXXXXXXXXXXX..XX   ",
"   XX..XXXXXXXXXXXXXXXXXX..XX   ",
" XX..XXXXXXXXXXXXXXXXXXXXXX..XX ",
" XX..XXXXXXXXXXXXXXXXXXXXXX..XX ",
" XX..XXXXXXXXXXXXXXXXXXXXXXXX..X",
" XX..XXXXXXXXXXXXXXXXXXXXXXXX..X",
" XX..XXXXXXXXXXXXXXXXXXXXXXXX..X",
" XX..XXXXXXXXXXXXXXXXXXXXXXXX..X",
"X..XXXXXXXXXXXXXXXXXXXXXXXXXX..X",
"X..XXXXXXXXXXXXXXXXXXXXXXXXXX..X",
"X..XXXXXXXXXXXXXX..XXXXXXXXXX..X",
"X..XXXXXXXXXXXXXX..XXXXXXXXXX..X",
"X..XXXXXXXXXXXXXX..XXXXXXXXXXX.X",
"X..XXXXXXXXXXXXXX..XXXXXXXXXXX.X",
"X..XXXXXXXXXXXXXX..XXXXXXXXXXX.X",
"X..XXXXXXXXXXXXXX..XXXXXXXXXXX.X",
"X..XXXXXXXXXX..........XXXXXXX.X",
"X.XXXXXXXXXXX..........XXXXXXX.X",
"X.XXXXXXXXX..............XXXXX.X",
"X.XXXXXXXXX..............XXXXX.X",
"X.XXXXXXX..................XXX.X",
"X..XXXXXX..................XX.XX",
"X..XXXX......................X.X",
"X..XXXX......................X.X",
"XX..XXXX......................XX",
"XX..XXXX......................XX",
"   XX........................XX ",
"   XX........................XX ",
"     XXXXXX....XX  XX..XXXXXX   ",
"     XXXXXX....XX  XX..XXXXXX   ",
"           XX..XX  XX..XX       ",
"           XX..XX  XX..XX       ",
"           XX..XX  XX..XX       ",
"           XX..XX  XX..XX       ",
"             XX      XX         ",
"             XX      XX         "
};
