/* XPM */
static char *a8b45c39d6034afbbcb95807aed48d78[] = {
/* columns rows colors chars-per-pixel */
"64 64 6 1 ",
"  c white",
". c black",
"X c #3A0911",
"o c #811426",
"O c #A11B31",
"+ c white",
/* pixels */
"                                                                ",
"                                                                ",
"                                                                ",
"                                                                ",
"                                                                ",
"                                                                ",
"                        XXXXXXXXXXXXXX                          ",
"                        XXXXXXXXXXXXXX                          ",
"                       XXXOOOOOOOOOOOOXX                        ",
"                       XXXOOOOOOOOOOOOXX                        ",
"                      XXOOOOO......OOOOOXX                      ",
"                      XXO..............OXX                      ",
"                    XXOOO..............OOOXX                    ",
"                    XXOOO..............OOOXX                    ",
"                  XXOOOO................OOOOXX                  ",
"                  XXOOOO................OOOOXX                  ",
"                  XXoooO...++......++...OoooXX                  ",
"                  XXoooO...++......++...OoooXX                  ",
"                  XXoooO...++......++...OoooXX                  ",
"                  XXooOO...++......++...OOooXX                  ",
"                  XXooOO...++......++...OOooXX                  ",
"                  XXooOO................OOooXX                  ",
"                  XXoooO................OoooXX                  ",
"                  XXoooO................OoooXX                  ",
"                  XXoooO................OoooXX                  ",
"                  XXoooo................ooooXX                  ",
"                    XXooO..............OooXX                    ",
"                    XXOOOOOO........OOOOooXX                    ",
"                      XXOOOOOOOOOOOOOOooXX                      ",
"                      XXOOOOOoooOOOOOOooXX                      ",
"                    XXOOooooooOOOOOOOOOOooXX                    ",
"                    XXooooooooOOOOOOOOOOooXX                    ",
"                  XXXXooOOOOOOOOOOOOOOOOooooXX                  ",
"                  XXooooOOOOOOOOOOOOOOOOOOooXX                  ",
"                  XXooooOOOOOOOOOOOOOOOOOoooXX                  ",
"                  XXooooOOOOOOOOOOOOOOOOOoooXX                  ",
"                  XXOOOOOOOOOOOOOOOOOOOOOOOOXX                  ",
"                  XXOOOOOOOOOOOOOOOOOOOOOOOOXX                  ",
"                  XXOoOOOOOOOOOOOOOOOOOOOOOOXX                  ",
"                  XXooOOOOOOOOOOOOOOOOOOOOOOXX                  ",
"                XXooooOOOOOOOOOXXOOOOOOOOOOOooXX                ",
"                XXooooOOOOOOOOOXXOOOOOOOOOOOooXX                ",
"                XXooooOOOOOOOOOXXOOOOOOOOOOOooXX                ",
"                XXooooOOOOOOOOOXXOOOOOOOOOOOooXX                ",
"                XXooooOOOOOOOOOXXOOOOOOOOOooooXX                ",
"                XXooooOOOOOooXXXXXXooOOOOOooooXX                ",
"                XXoooooooooooXXXXXXoooooooooooXX                ",
"                XXoooooooooXXXXXXXXXXoooooooooXX                ",
"                XXoooooooooXXXXXXXXXXoooooooooXX                ",
"                XXoooooooXXX........XXooooooooXX                ",
"                XXoooooooXXX........XXooooooooXX                ",
"                XXoooooooXX..........XooooooooXX                ",
"                  XXooooXXX..........XXXooooXX                  ",
"                  XXooooXXX..........XXXooooXX                  ",
"                    XXXX......     ......XXX                    ",
"                    XX  ......     ...... XX                    ",
"                          ..         ..                         ",
"                          ..         ..                         ",
"                          ..         ..                         ",
"                                     ..                         ",
"                                     ..                         ",
"                                     ..                         ",
"                                     ..                         ",
"                                     ..                         "
};
