/* XPM */
static char *cd1f76187f624eafbf6782fc8742dac65oenidAAqoieJeS5[] = {
/* columns rows colors chars-per-pixel */
"64 64 6 1 ",
"  c white",
". c black",
"X c #3A0911",
"o c #811426",
"O c #A11B31",
"+ c white",
/* pixels */
"                                                                ",
"                                                                ",
"                                                                ",
"                                                                ",
"                                                                ",
"                                                                ",
"                                                                ",
"                                                                ",
"                                                                ",
"                                                                ",
"                            XXXXXXXXXXXXXX                      ",
"                            XXXXXXXXXXXXXX                      ",
"                          XXOOOOOOOOOOOOooXX                    ",
"                          XXOOOOOOOOOOOOooXX                    ",
"                        XXOOXXXXXXXXOOOOOOooXX                  ",
"                        XXOOXXXXXXXXOOOOOOooXX                  ",
"                      XXOOXX........XXOOOOOOooXX                ",
"                      XXOOXX........XXOOOOOOooXX                ",
"                    XXOOXX............XXOOOOooXX                ",
"                    XXOOXX............XXOOOOooXX                ",
"                    XXOOXX............XXOOOOooooXX              ",
"                    XXOOXX............XXOOOOooooXX              ",
"                    XXOOXX++......++..XXOOooooooooXX            ",
"                    XXOOXX++......++..XXOOooooooooXX            ",
"                    XXOOXX++......++..XXOOooXXooooXX            ",
"                    XXOOXX++......++..XXOOooXXooooXX            ",
"                    XXooXX............XXOOooXXXXXX              ",
"                    XXooXX............XXOOooXXXXXX              ",
"                    XXooXX..........XXOOooooXX                  ",
"                    XXooXX..........XXOOooooXX                  ",
"                      XXooXX......XXooooooXX                    ",
"                      XXooXX......XXooooooXX                    ",
"                        XXooXXXXXXooooXXXX                      ",
"                        XXooXXXXXXooooXXXX                      ",
"                      XXooOOOOOOOOOOooooooXX                    ",
"                      XXooOOOOOOOOOOooooooXX                    ",
"                    XXooOOOOOOOOOOOOOOOOOOooXX                  ",
"                    XXooOOOOOOOOOOOOOOOOOOooXX                  ",
"                    XXooOOOOOOOOOOOOOOOOOOooXX                  ",
"                    XXooOOOOOOOOOOOOOOOOOOooXX                  ",
"                    XXOOOOOOOOOOOOOOOOOOOOOOXX                  ",
"                    XXOOOOOOOOOOOOOOOOOOOOOOXX                  ",
"                    XXOOOOOOOOOOOOOOOOOOOOOOooXX                ",
"                    XXOOOOOOOOOOOOOOOOOOOOOOooXX                ",
"                  XXooOOOOOOOOooOOOOOOOOOOOOooXX                ",
"                  XXooOOOOOOOOooOOOOOOOOOOOOooXX                ",
"                  XXooOOOOOOooooOOOOOOOOOOOOooooXX              ",
"                  XXooOOOOOOooooOOOOOOOOOOOOooooXX              ",
"                XXooooooOOOOooXXooOOOOOOOOOOooooXX              ",
"                XXooooooOOOOooXXooOOOOOOOOOOooooXX              ",
"                XXooooooOOooooXXooooOOooOOooooooXX              ",
"                XXooooooOOooooXXooooOOooOOooooooXX              ",
"                XXooooooooooXX..XXooooOOooooXXooXX              ",
"                XXooooooooooXX..XXooooOOooooXXooXX              ",
"                  XXooXXooooXX....XXooooooooXXXX                ",
"                  XXooXXooooXX....XXooooooooXXXX                ",
"                    XXooooXX......XXooooXXXX                    ",
"                    XXooooXX......XXooooXXXX                    ",
"                      XXXXXX..    XXXXXX                        ",
"                      XXXXXX..    XXXXXX                        ",
"                        ..            ..                        ",
"                        ..            ..                        ",
"                        ..              ..                      ",
"                        ..              ..                      "
};
